# xmcd CD database file generated by Grip 3.2.0
# 
# Track frame offsets:
#       150
#       13056
#       28758
#       39213
#       50523
#       60912
#       81023
#       93037
#       108092
#       124353
#       141014
#       153264
#       166811
#       177666
#       186631
# 
# Disc length: 2637 seconds
# 
# Revision: 1
# Processed by: cddbd v1.5.2PL0 Copyright (c) Steve Scherf et al.
# Submitted via: Grip 3.2.0
# 
DISCID=bb0a4b0f
DTITLE=The Irish Showbands - Farourite Irish Showband Classics (Volume 2)
DYEAR=1900
DGENRE=Folklore
TTITLE0=It Didn't Have to Be a Diamond
TTITLE1=I ain't Crying Mister
TTITLE2=Till i Can't Take It Anymore
TTITLE3=One Step From Nowhere
TTITLE4=Then I Kissed Her
TTITLE5=Unchained Melody
TTITLE6=gentle mother
TTITLE7=indian wedding
TTITLE8=until it's time for you to go
TTITLE9=runnaway
TTITLE10=wedding bells
TTITLE11=behind the footlights
TTITLE12=can a bluebird fly
TTITLE13=one more ride
TTITLE14=c'mon everybody
EXTD=
EXTT0=
EXTT1=
EXTT2=
EXTT3=
EXTT4=
EXTT5=
EXTT6=
EXTT7=
EXTT8=
EXTT9=
EXTT10=
EXTT11=
EXTT12=
EXTT13=
EXTT14=
PLAYORDER=
